<svg width="562" height="110" viewBox="0 0 562 110" fill="none" xmlns="http://www.w3.org/2000/svg">
<g clip-path="url(#clip0_2_3)">
<path d="M106.925 45.2478C105.998 35.4312 97.6558 28.0688 87.769 27.762H85.6063C81.2808 14.571 67.0685 6.90177 53.4741 11.1965C45.4411 13.6507 39.2618 20.0928 36.7901 28.0688C35.5543 27.762 34.0095 27.762 32.4647 27.762C21.651 27.762 13 36.6583 13 47.3952C13 57.2118 20.7241 65.4945 30.3019 66.4148V97.0917C30.3019 99.8526 32.4647 102 35.2453 102H84.0614C86.8421 102 89.0048 99.8526 89.0048 97.0917V66.4148C100.128 65.4945 107.852 55.9847 106.925 45.2478ZM59.3444 64.2675C41.1156 64.2675 37.0991 47.0884 37.0991 47.0884C51.6203 57.8253 66.4506 57.2118 82.5166 47.0884C82.5166 46.7817 77.5732 63.9607 59.3444 64.2675Z" fill="#FF6310"/>
<path d="M180.75 33.375C179.875 35.375 179.094 37.125 178.406 38.625C177.719 40.125 177.125 41.4062 176.625 42.4688C176.062 43.6562 175.594 44.7188 175.219 45.6562C174.906 46.3438 174.5 47.2812 174 48.4688C173.5 49.5312 172.875 50.9375 172.125 52.6875C171.438 54.375 170.531 56.5625 169.406 59.25C168.844 56.9375 168.156 54.9062 167.344 53.1562C166.531 51.4062 165.656 49.875 164.719 48.5625C163.781 47.25 162.781 46.1875 161.719 45.375C160.719 44.5 159.719 43.7812 158.719 43.2188C156.406 41.9688 153.969 41.2812 151.406 41.1562C148.031 41.3438 145.375 41.9062 143.438 42.8438C141.562 43.7188 140.188 44.75 139.312 45.9375C138.438 47.0625 137.969 48.25 137.906 49.5C137.844 50.6875 138 51.6875 138.375 52.5C138.688 53.25 139.781 54.125 141.656 55.125C143.594 56.125 145.906 57.2812 148.594 58.5938C151.344 59.8438 154.281 61.2812 157.406 62.9062C160.531 64.4688 163.406 66.2188 166.031 68.1562C168.719 70.0312 170.969 72.0938 172.781 74.3438C174.656 76.5312 175.688 78.875 175.875 81.375C176.062 84.5625 176.031 87.4375 175.781 90C175.531 92.5625 174.656 94.75 173.156 96.5625C171.656 98.375 169.312 99.8125 166.125 100.875C163 101.938 158.656 102.594 153.094 102.844C147.344 103.094 142.625 102.781 138.938 101.906C135.25 101.031 132.25 99.8438 129.938 98.3438C127.688 96.8438 126 95.1875 124.875 93.375C123.812 91.5625 123.031 89.8438 122.531 88.2188C122.031 86.5312 121.688 85.0938 121.5 83.9062C121.312 82.6562 121 81.9062 120.562 81.6562C120.062 81.3438 119.562 81.0625 119.062 80.8125C118.625 80.5625 118.156 80.3438 117.656 80.1562C117.156 79.9062 116.656 79.6875 116.156 79.5L143.438 75.0938C141.875 76.3438 140.656 77.5 139.781 78.5625C138.969 79.625 138.344 80.5625 137.906 81.375C137.406 82.3125 137.062 83.1875 136.875 84C136.75 84.875 137.031 85.9688 137.719 87.2812C138.406 88.5938 139.344 89.875 140.531 91.125C141.781 92.3125 143.219 93.3125 144.844 94.125C146.469 94.9375 148.156 95.2812 149.906 95.1562C152.094 94.9688 153.875 94.4375 155.25 93.5625C156.625 92.625 157.656 91.4688 158.344 90.0938C159.094 88.7188 159.531 87.2188 159.656 85.5938C159.781 83.9688 159.625 82.375 159.188 80.8125C158.812 79.1875 158.188 77.6875 157.312 76.3125C156.438 74.875 155.406 73.6875 154.219 72.75C153.156 72 151.5 71.2812 149.25 70.5938C147.062 69.9062 144.594 69.1562 141.844 68.3438C139.156 67.5312 136.375 66.5938 133.5 65.5312C130.688 64.4688 128.125 63.1562 125.812 61.5938C123.562 60.0312 121.75 58.1875 120.375 56.0625C119.062 53.9375 118.562 51.375 118.875 48.375C119.125 45.8125 119.938 43.6875 121.312 42C122.75 40.25 124.531 38.875 126.656 37.875C128.844 36.8125 131.25 36.0312 133.875 35.5312C136.562 35.0312 139.281 34.75 142.031 34.6875C144.844 34.5625 147.594 34.5938 150.281 34.7812C153.031 34.9688 155.5 35.1875 157.688 35.4375C159.875 35.6875 161.719 35.9375 163.219 36.1875C164.781 36.375 165.75 36.5 166.125 36.5625C167.75 36.6875 169.375 36.6562 171 36.4688C172.438 36.3438 174 36.0625 175.688 35.625C177.438 35.125 179.125 34.375 180.75 33.375ZM180.281 57.5625C181.719 57.4375 182.938 57.3125 183.938 57.1875C185 57.0625 185.875 56.9375 186.562 56.8125C187.375 56.6875 188.062 56.5625 188.625 56.4375C189.188 56.375 189.812 56.25 190.5 56.0625C191.125 55.9375 191.812 55.7812 192.562 55.5938C193.375 55.3438 194.25 55.0625 195.188 54.75L194.625 66.6562C196 64.4688 197.594 62.8125 199.406 61.6875C201.219 60.5 202.938 59.625 204.562 59.0625C206.5 58.375 208.438 57.9688 210.375 57.8438C212.375 57.9062 214.219 58.2188 215.906 58.7812C217.344 59.2812 218.781 60.0625 220.219 61.125C221.719 62.1875 222.875 63.75 223.688 65.8125C225.812 63.625 227.906 61.9375 229.969 60.75C232.094 59.5 233.969 58.5625 235.594 57.9375C237.531 57.25 239.344 56.8438 241.031 56.7188C243.281 56.6562 245.344 57.0312 247.219 57.8438C249.156 58.6562 250.844 59.6875 252.281 60.9375C253.719 62.125 254.875 63.4062 255.75 64.7812C256.625 66.0938 257.125 67.25 257.25 68.25C257.438 69.625 257.344 71.4062 256.969 73.5938C256.594 75.7188 256.156 77.9062 255.656 80.1562C255.156 82.3438 254.688 84.375 254.25 86.25C253.875 88.0625 253.719 89.3438 253.781 90.0938C253.969 90.7188 254.406 91.4688 255.094 92.3438C255.719 93.0938 256.625 94.0312 257.812 95.1562C259.062 96.2188 260.844 97.4688 263.156 98.9062C261.156 98.8438 259.375 98.7812 257.812 98.7188C256.312 98.6562 255.031 98.5625 253.969 98.4375C252.719 98.3125 251.625 98.2188 250.688 98.1562C249.938 98.1562 249.031 98.0938 247.969 97.9688C247.094 97.9062 245.938 97.8125 244.5 97.6875C243.125 97.5625 241.531 97.4375 239.719 97.3125C240.406 97.125 240.969 96.7812 241.406 96.2812C241.844 95.7188 242.219 95.1875 242.531 94.6875C242.844 94.0625 243.094 93.375 243.281 92.625C243.406 92 243.531 91 243.656 89.625C243.781 88.25 243.875 86.6875 243.938 84.9375C244.062 83.1875 244.125 81.3438 244.125 79.4062C244.188 77.4688 244.188 75.625 244.125 73.875C244.062 72.125 243.938 70.5312 243.75 69.0938C243.562 67.6562 243.312 66.5625 243 65.8125C242.75 65.25 242.312 64.8125 241.688 64.5C241.062 64.125 240.344 63.9062 239.531 63.8438C238.719 63.7188 237.906 63.75 237.094 63.9375C236.281 64.0625 235.562 64.3125 234.938 64.6875C234.375 65.125 233.625 65.7188 232.688 66.4688C231.875 67.1562 230.812 68.0938 229.5 69.2812C228.188 70.4688 226.531 71.9688 224.531 73.7812C224.344 77.7188 224.188 80.9062 224.062 83.3438C224 85.7188 223.938 87.5312 223.875 88.7812C223.812 90.2812 223.781 91.3125 223.781 91.875C223.719 92.375 223.75 92.8438 223.875 93.2812C224 94.2188 224.375 95.0938 225 95.9062C224.25 95.7188 223.438 95.5938 222.562 95.5312C221.75 95.4688 221 95.4062 220.312 95.3438C219.5 95.2812 218.688 95.25 217.875 95.25C217.188 95.25 216.438 95.2812 215.625 95.3438C214.938 95.4062 214.094 95.5 213.094 95.625C212.094 95.6875 211 95.7812 209.812 95.9062C210.312 95.5938 210.719 95.2188 211.031 94.7812C211.344 94.3438 211.594 93.9375 211.781 93.5625C212.031 93.125 212.219 92.7188 212.344 92.3438C212.406 91.9688 212.531 91.0625 212.719 89.625C212.906 88.125 213.031 86.375 213.094 84.375C213.156 82.375 213.156 80.2812 213.094 78.0938C213.031 75.8438 212.812 73.8125 212.438 72C212.062 70.125 211.469 68.5938 210.656 67.4062C209.906 66.2188 208.906 65.6875 207.656 65.8125C206.156 65.9375 204.625 66.3125 203.062 66.9375C201.75 67.4375 200.344 68.1875 198.844 69.1875C197.344 70.1875 195.938 71.5312 194.625 73.2188C194.375 77.9062 194.219 81.625 194.156 84.375C194.156 87.125 194.188 89.2188 194.25 90.6562C194.312 92.3438 194.375 93.5 194.438 94.125C194.5 94.5625 194.656 95 194.906 95.4375C195.094 95.8125 195.312 96.25 195.562 96.75C195.875 97.25 196.219 97.7188 196.594 98.1562L181.688 97.4062C182.188 97.1562 182.625 96.8438 183 96.4688C183.375 96.0312 183.688 95.5938 183.938 95.1562C184.188 94.6562 184.438 94.1562 184.688 93.6562C184.875 93.2188 185.031 92.1875 185.156 90.5625C185.344 88.9375 185.5 87.0312 185.625 84.8438C185.75 82.5938 185.844 80.25 185.906 77.8125C186.031 75.3125 186.094 73 186.094 70.875C186.156 68.6875 186.188 66.8438 186.188 65.3438C186.188 63.7812 186.156 62.8438 186.094 62.5312C185.906 61.9062 185.562 61.25 185.062 60.5625C184.625 60.0625 184.031 59.5312 183.281 58.9688C182.531 58.3438 181.531 57.875 180.281 57.5625ZM270.656 64.0312C270.969 63.6562 271.156 62.9688 271.219 61.9688C271.344 60.9062 271.594 59.7188 271.969 58.4062C272.406 57.0938 273.125 55.7188 274.125 54.2812C275.125 52.8438 276.75 51.5 279 50.25C281.188 49 283.312 48.25 285.375 48C287.438 47.75 289.406 47.8438 291.281 48.2812C293.156 48.7188 294.906 49.4062 296.531 50.3438C298.219 51.2812 299.75 52.3125 301.125 53.4375C302.062 54.1875 302.812 55.2812 303.375 56.7188C303.938 58.0938 304.375 59.6562 304.688 61.4062C305 63.1562 305.219 65 305.344 66.9375C305.531 68.8125 305.656 70.6562 305.719 72.4688C305.781 74.2188 305.812 75.8438 305.812 77.3438C305.875 78.7812 306 79.9688 306.188 80.9062C306.438 82.2812 306.875 83.4688 307.5 84.4688C308.125 85.4062 308.812 86.2188 309.562 86.9062C310.312 87.5312 311.062 88.0312 311.812 88.4062C312.562 88.7812 313.219 89.0625 313.781 89.25C314.156 89.4375 314.5 89.5625 314.812 89.625C315.438 89.875 315.875 89.875 316.125 89.625C315.75 90.5 315.406 91.25 315.094 91.875C314.781 92.5 314.531 93.0312 314.344 93.4688C314.094 93.9688 313.875 94.375 313.688 94.6875C313.5 95.0625 313.281 95.4062 313.031 95.7188C312.844 96.0312 312.594 96.375 312.281 96.75C311.969 97.125 311.656 97.5312 311.344 97.9688C310.531 97.6562 309.75 97.2812 309 96.8438C308.312 96.4062 307.688 96 307.125 95.625C306.438 95.1875 305.812 94.75 305.25 94.3125C304.688 93.875 304.156 93.375 303.656 92.8125C303.219 92.3125 302.75 91.7812 302.25 91.2188C301.812 90.6562 301.438 90.0312 301.125 89.3438C300.75 90.1562 299.844 91.3125 298.406 92.8125C297.031 94.3125 295.219 95.6875 292.969 96.9375C290.719 98.125 288.094 98.9688 285.094 99.4688C282.156 99.9688 278.906 99.625 275.344 98.4375C273.781 97.9375 272.312 97.2188 270.938 96.2812C269.562 95.2812 268.375 94.0938 267.375 92.7188C266.438 91.3438 265.75 89.7812 265.312 88.0312C264.938 86.2188 264.969 84.2188 265.406 82.0312C265.844 79.8438 266.625 78 267.75 76.5C268.875 75 270.219 73.7812 271.781 72.8438C273.344 71.9062 275.094 71.1875 277.031 70.6875C278.969 70.1875 280.969 69.8438 283.031 69.6562C284.656 69.5938 286.281 69.6875 287.906 69.9375C289.281 70.1875 290.719 70.6562 292.219 71.3438C293.719 71.9688 295 72.9375 296.062 74.25C296 70.9375 295.875 68.3125 295.688 66.375C295.562 64.375 295.438 62.8438 295.312 61.7812C295.062 60.5312 294.844 59.6562 294.656 59.1562C294.344 58.7188 294 58.2188 293.625 57.6562C293.312 57.0938 292.906 56.5938 292.406 56.1562C291.906 55.6562 291.281 55.25 290.531 54.9375C289.781 54.625 288.906 54.5 287.906 54.5625C286.844 54.625 286 54.9062 285.375 55.4062C284.75 55.9062 284.25 56.5 283.875 57.1875C283.562 57.8125 283.375 58.5 283.312 59.25C283.25 60 283.281 60.6562 283.406 61.2188C283.531 61.5938 283.719 62 283.969 62.4375C284.219 62.8125 284.562 63.2188 285 63.6562C285.438 64.0938 286.031 64.4688 286.781 64.7812C285.344 64.9688 284.062 65.125 282.938 65.25C281.812 65.3125 280.844 65.4062 280.031 65.5312C279.094 65.6562 278.281 65.75 277.594 65.8125C276.906 65.875 276.094 66 275.156 66.1875C274.344 66.3125 273.344 66.4688 272.156 66.6562C270.969 66.8438 269.594 67.0938 268.031 67.4062C268.406 66.9688 268.75 66.5625 269.062 66.1875C269.375 65.75 269.656 65.375 269.906 65.0625C270.156 64.6875 270.406 64.3438 270.656 64.0312ZM284.719 75.1875C283.594 75.25 282.469 75.5312 281.344 76.0312C280.219 76.4688 279.219 77.125 278.344 78C277.469 78.8125 276.719 79.7812 276.094 80.9062C275.531 81.9688 275.25 83.1562 275.25 84.4688C275.25 85.7812 275.562 86.9375 276.188 87.9375C276.875 88.875 277.75 89.6562 278.812 90.2812C279.938 90.9062 281.125 91.2812 282.375 91.4062C283.688 91.5312 284.969 91.4062 286.219 91.0312C287.406 90.5938 288.531 89.9062 289.594 88.9688C290.656 87.9688 291.562 86.9062 292.312 85.7812C293.062 84.5938 293.594 83.4375 293.906 82.3125C294.219 81.125 294.25 80.1562 294 79.4062C293.5 77.7812 292.375 76.6562 290.625 76.0312C288.875 75.3438 286.906 75.0625 284.719 75.1875ZM314.25 57.0938C315.438 57.1562 316.5 57.1875 317.438 57.1875C318.438 57.125 319.281 57.0625 319.969 57C320.781 56.9375 321.5 56.875 322.125 56.8125C323.062 56.6875 324.031 56.5312 325.031 56.3438C325.906 56.2188 326.812 56.0625 327.75 55.875C328.75 55.625 329.719 55.3438 330.656 55.0312C330.281 55.9688 329.969 56.7812 329.719 57.4688C329.469 58.1562 329.281 58.75 329.156 59.25C328.969 59.8125 328.875 60.2812 328.875 60.6562C328.812 61.0938 328.781 61.625 328.781 62.25C328.719 63.3125 328.719 65.0312 328.781 67.4062C332.031 64.5938 334.75 62.4062 336.938 60.8438C339.188 59.2812 340.969 58.0625 342.281 57.1875C343.844 56.1875 345.062 55.5312 345.938 55.2188C348.25 54.8438 350.281 55.375 352.031 56.8125C352.781 57.4375 353.5 58.2812 354.188 59.3438C354.875 60.3438 355.469 61.6875 355.969 63.375C356.469 65.0625 356.844 67.0938 357.094 69.4688C357.344 71.7812 357.375 74.5625 357.188 77.8125C355.875 77.9375 354.688 78.0625 353.625 78.1875C352.625 78.3125 351.781 78.4062 351.094 78.4688C350.281 78.5938 349.531 78.6562 348.844 78.6562L346.312 78.9375C345.438 79.0625 344.344 79.1875 343.031 79.3125C341.781 79.375 340.25 79.5 338.438 79.6875C341.062 77.5625 342.75 75.7188 343.5 74.1562C344.312 72.5312 344.656 71.1875 344.531 70.125C344.406 68.9375 343.844 67.9062 342.844 67.0312C341.656 66.3438 340.375 66.0938 339 66.2812C337.812 66.4062 336.438 66.9375 334.875 67.875C333.312 68.8125 331.656 70.5625 329.906 73.125C330.031 77.125 330.156 80.4375 330.281 83.0625C330.469 85.6875 330.625 87.8125 330.75 89.4375C330.938 91.3125 331.094 92.7812 331.219 93.8438C331.406 94.7812 331.781 95.7812 332.344 96.8438C332.781 97.7188 333.406 98.6875 334.219 99.75C335.031 100.812 336.094 101.875 337.406 102.938C334.656 102.812 332.406 102.812 330.656 102.938C329.594 103 328.656 103.062 327.844 103.125C326.969 103.25 326.031 103.375 325.031 103.5C324.156 103.625 323.125 103.75 321.938 103.875C320.812 104.062 319.562 104.25 318.188 104.438C318.688 103.75 319.094 102.938 319.406 102C319.719 101.125 319.969 100.281 320.156 99.4688C320.406 98.5312 320.594 97.5625 320.719 96.5625C320.781 95.6875 320.812 94.375 320.812 92.625C320.875 90.875 320.844 88.9062 320.719 86.7188C320.656 84.4688 320.562 82.1562 320.438 79.7812C320.312 77.3438 320.156 75.0625 319.969 72.9375C319.781 70.8125 319.562 68.9688 319.312 67.4062C319.125 65.7812 318.906 64.6562 318.656 64.0312C318.344 63.2812 317.969 62.5312 317.531 61.7812C317.156 61.0938 316.688 60.375 316.125 59.625C315.562 58.8125 314.938 57.9688 314.25 57.0938ZM360 42.9375C361.875 43.125 363.438 43.2812 364.688 43.4062C366 43.5312 367.062 43.625 367.875 43.6875C368.812 43.75 369.562 43.7812 370.125 43.7812C370.688 43.8438 371.438 43.8438 372.375 43.7812C373.188 43.7188 374.25 43.6562 375.562 43.5938C376.875 43.4688 378.531 43.2812 380.531 43.0312C380.094 43.6562 379.75 44.2188 379.5 44.7188C379.25 45.1562 379.031 45.5625 378.844 45.9375L378.281 47.0625C378.156 47.4375 378.031 47.8125 377.906 48.1875C377.781 48.5 377.656 48.875 377.531 49.3125C377.469 49.75 377.406 50.2188 377.344 50.7188H391.781L390.469 58.3125L377.25 57.5625C376.938 60.75 376.719 63.2188 376.594 64.9688C376.469 66.7188 376.344 68 376.219 68.8125L376.031 70.5C375.844 72.875 375.656 75.4688 375.469 78.2812C375.281 81.0312 375.219 83.5938 375.281 85.9688C375.344 88.3438 375.562 90.3438 375.938 91.9688C376.312 93.5312 376.969 94.3125 377.906 94.3125C378.844 94.3125 379.719 94.0625 380.531 93.5625C381.344 93.0625 382.031 92.4688 382.594 91.7812C383.219 91.0938 383.688 90.4062 384 89.7188C384.312 88.9688 384.469 88.4062 384.469 88.0312C384.469 87.6562 384.375 87.2188 384.188 86.7188C383.875 85.7812 383.312 84.5938 382.5 83.1562C384.312 83.5938 385.906 84.0312 387.281 84.4688C387.969 84.7188 388.594 84.9688 389.156 85.2188C389.781 85.4688 390.5 85.75 391.312 86.0625C392 86.375 392.875 86.75 393.938 87.1875C395 87.625 396.25 88.1562 397.688 88.7812C396.312 89.0312 395.312 89.4375 394.688 90C394.312 90.25 394.031 90.5312 393.844 90.8438C393.406 91.5312 392.906 92.4688 392.344 93.6562C391.781 94.7812 390.938 95.9062 389.812 97.0312C388.688 98.1562 387.156 99.1562 385.219 100.031C383.344 100.906 380.812 101.406 377.625 101.531C374.312 101.656 371.781 101.094 370.031 99.8438C368.344 98.5938 367.094 97.1562 366.281 95.5312C365.531 93.8438 365.094 92.1875 364.969 90.5625C364.844 88.9375 364.75 87.8438 364.688 87.2812C364.625 86.7188 364.625 85.3125 364.688 83.0625C364.75 80.8125 364.844 78.3438 364.969 75.6562C365.094 72.9062 365.219 70.2812 365.344 67.7812C365.469 65.2188 365.531 63.3438 365.531 62.1562C365.531 61.5312 365.562 60.875 365.625 60.1875C365.625 59.625 365.625 59.0312 365.625 58.4062C365.688 57.7188 365.719 57.0625 365.719 56.4375L352.125 56.3438L351.562 51L365.25 51.375C365.125 50.6875 364.969 50.0625 364.781 49.5C364.656 48.875 364.531 48.375 364.406 48C364.219 47.5625 364.031 47.1875 363.844 46.875C363.594 46.5625 363.312 46.2188 363 45.8438C362.688 45.5312 362.281 45.125 361.781 44.625C361.281 44.125 360.688 43.5625 360 42.9375ZM391.031 34.9688C393.031 35.4688 394.938 35.8438 396.75 36.0938C398.562 36.3438 400.156 36.5312 401.531 36.6562C403.156 36.8438 404.656 36.9062 406.031 36.8438C407.781 36.8438 409.969 36.6875 412.594 36.375C415.281 36.0625 418.031 35.7812 420.844 35.5312C423.656 35.2188 426.344 35.0312 428.906 34.9688C431.531 34.8438 433.656 35 435.281 35.4375C436.906 35.8125 438.562 36.4062 440.25 37.2188C442 37.9688 443.594 38.9375 445.031 40.125C446.469 41.25 447.656 42.5938 448.594 44.1562C449.531 45.6562 450.062 47.375 450.188 49.3125C450.125 51.75 449.562 54.0312 448.5 56.1562C447.625 57.9688 446.156 59.8438 444.094 61.7812C442.031 63.6562 439.062 65.0938 435.188 66.0938C437.125 66.3438 438.781 66.7812 440.156 67.4062C441.594 67.9688 442.812 68.6562 443.812 69.4688C444.875 70.2188 445.719 71.0625 446.344 72C447.031 72.9375 447.562 73.875 447.938 74.8125C448.875 77 449.312 79.4375 449.25 82.125C448.875 85.625 448.156 88.4062 447.094 90.4688C446.094 92.5312 444.938 94.125 443.625 95.25C442.312 96.375 440.969 97.1562 439.594 97.5938C438.219 98.0312 436.969 98.375 435.844 98.625C434.719 98.875 433.344 99 431.719 99C430.094 99 428.344 98.9688 426.469 98.9062C424.656 98.7812 422.781 98.6875 420.844 98.625C418.906 98.5 417.062 98.5 415.312 98.625C413.875 98.75 412.125 98.875 410.062 99C408.312 99.125 406.125 99.2812 403.5 99.4688C400.875 99.5938 397.812 99.75 394.312 99.9375C395 99.4375 395.562 98.875 396 98.25C396.5 97.5625 396.906 96.9688 397.219 96.4688C397.531 95.8438 397.812 95.25 398.062 94.6875C398.25 94.1875 398.406 92.8125 398.531 90.5625C398.656 88.3125 398.75 85.625 398.812 82.5C398.875 79.3125 398.906 75.9062 398.906 72.2812C398.969 68.5938 398.938 65.0625 398.812 61.6875C398.75 58.25 398.625 55.2188 398.438 52.5938C398.312 49.9062 398.125 47.9688 397.875 46.7812C397.5 45.4688 397 44.125 396.375 42.75C395.875 41.5625 395.156 40.2812 394.219 38.9062C393.344 37.5312 392.281 36.2188 391.031 34.9688ZM410.812 44.5312C410.812 44.7812 410.844 45.625 410.906 47.0625C410.969 48.3125 411.031 50.25 411.094 52.875C411.219 55.4375 411.375 59.0938 411.562 63.8438C413.125 64.5312 414.656 64.9062 416.156 64.9688C417.656 64.9688 419 64.9062 420.188 64.7812C421.562 64.5938 422.875 64.2812 424.125 63.8438C425.812 63.1562 427.125 62.0312 428.062 60.4688C429.062 58.9062 429.719 57.2812 430.031 55.5938C430.406 53.8438 430.5 52.2188 430.312 50.7188C430.125 49.1562 429.719 48.0312 429.094 47.3438C427.906 46.2812 426.438 45.4062 424.688 44.7188C423.188 44.1562 421.281 43.7812 418.969 43.5938C416.719 43.3438 414 43.6562 410.812 44.5312ZM410.344 88.9688C412.656 90.1562 414.688 90.9375 416.438 91.3125C418.188 91.6875 419.656 91.875 420.844 91.875C422.219 91.875 423.406 91.6875 424.406 91.3125C425.594 90.75 426.75 90 427.875 89.0625C429.062 88.0625 429.938 86.9062 430.5 85.5938C431.125 84.2188 431.375 82.7188 431.25 81.0938C431.125 79.4062 430.406 77.5625 429.094 75.5625C427.906 74.125 426.469 73 424.781 72.1875C423.281 71.5 421.375 71.0625 419.062 70.875C416.812 70.6875 414.031 71.2188 410.719 72.4688L410.344 88.9688ZM454.5 60.0938L471.75 60.2812C470.75 64.0938 470 67.3438 469.5 70.0312C469.062 72.7188 468.781 74.9688 468.656 76.7812C468.406 78.8438 468.344 80.5938 468.469 82.0312C468.656 83.3438 468.969 84.75 469.406 86.25C469.781 87.5 470.344 88.9375 471.094 90.5625C471.844 92.1875 472.844 93.8125 474.094 95.4375C473.344 95.1875 472.531 95 471.656 94.875C470.781 94.75 469.969 94.6562 469.219 94.5938C468.344 94.5312 467.469 94.5312 466.594 94.5938C465.719 94.6562 464.75 94.75 463.688 94.875C462.812 95 461.75 95.1562 460.5 95.3438C459.25 95.5312 457.938 95.7812 456.562 96.0938C457.5 93.2812 458.219 90.8438 458.719 88.7812C459.281 86.7188 459.688 85 459.938 83.625C460.188 82 460.344 80.6875 460.406 79.6875C460.406 78.4375 460.406 77.0312 460.406 75.4688C460.406 73.8438 460.406 72.2812 460.406 70.7812C460.406 69.2812 460.375 67.9688 460.312 66.8438C460.25 65.6562 460.125 64.9062 459.938 64.5938L459 63.6562C458.625 63.3438 458.062 62.9062 457.312 62.3438C456.625 61.7188 455.688 60.9688 454.5 60.0938ZM461.156 45.6562C462.469 44.9688 463.781 44.7812 465.094 45.0938C466.469 45.4062 467.531 46 468.281 46.875C469.031 47.75 469.281 48.7812 469.031 49.9688C468.844 51.1562 467.844 52.3125 466.031 53.4375C464.219 54.5 462.625 54.875 461.25 54.5625C459.875 54.25 458.906 53.5938 458.344 52.5938C457.781 51.5938 457.688 50.4375 458.062 49.125C458.438 47.75 459.469 46.5938 461.156 45.6562ZM476.344 42.9375C478.219 43.125 479.781 43.2812 481.031 43.4062C482.344 43.5312 483.406 43.625 484.219 43.6875C485.156 43.75 485.906 43.7812 486.469 43.7812C487.031 43.8438 487.781 43.8438 488.719 43.7812C489.531 43.7188 490.594 43.6562 491.906 43.5938C493.219 43.4688 494.875 43.2812 496.875 43.0312C496.438 43.6562 496.094 44.2188 495.844 44.7188C495.594 45.1562 495.375 45.5625 495.188 45.9375L494.625 47.0625C494.5 47.4375 494.375 47.8125 494.25 48.1875C494.125 48.5 494 48.875 493.875 49.3125C493.812 49.75 493.75 50.2188 493.688 50.7188H508.125L506.812 58.3125L493.594 57.5625C493.281 60.75 493.062 63.2188 492.938 64.9688C492.812 66.7188 492.688 68 492.562 68.8125L492.375 70.5C492.188 72.875 492 75.4688 491.812 78.2812C491.625 81.0312 491.562 83.5938 491.625 85.9688C491.688 88.3438 491.906 90.3438 492.281 91.9688C492.656 93.5312 493.312 94.3125 494.25 94.3125C495.188 94.3125 496.062 94.0625 496.875 93.5625C497.688 93.0625 498.375 92.4688 498.938 91.7812C499.562 91.0938 500.031 90.4062 500.344 89.7188C500.656 88.9688 500.812 88.4062 500.812 88.0312C500.812 87.6562 500.719 87.2188 500.531 86.7188C500.219 85.7812 499.656 84.5938 498.844 83.1562C500.656 83.5938 502.25 84.0312 503.625 84.4688C504.312 84.7188 504.938 84.9688 505.5 85.2188C506.125 85.4688 506.844 85.75 507.656 86.0625C508.344 86.375 509.219 86.75 510.281 87.1875C511.344 87.625 512.594 88.1562 514.031 88.7812C512.656 89.0312 511.656 89.4375 511.031 90C510.656 90.25 510.375 90.5312 510.188 90.8438C509.75 91.5312 509.25 92.4688 508.688 93.6562C508.125 94.7812 507.281 95.9062 506.156 97.0312C505.031 98.1562 503.5 99.1562 501.562 100.031C499.688 100.906 497.156 101.406 493.969 101.531C490.656 101.656 488.125 101.094 486.375 99.8438C484.688 98.5938 483.438 97.1562 482.625 95.5312C481.875 93.8438 481.438 92.1875 481.312 90.5625C481.188 88.9375 481.094 87.8438 481.031 87.2812C480.969 86.7188 480.969 85.3125 481.031 83.0625C481.094 80.8125 481.188 78.3438 481.312 75.6562C481.438 72.9062 481.562 70.2812 481.688 67.7812C481.812 65.2188 481.875 63.3438 481.875 62.1562C481.875 61.5312 481.906 60.875 481.969 60.1875C481.969 59.625 481.969 59.0312 481.969 58.4062C482.031 57.7188 482.062 57.0625 482.062 56.4375L468.469 56.3438L467.906 51L481.594 51.375C481.469 50.6875 481.312 50.0625 481.125 49.5C481 48.875 480.875 48.375 480.75 48C480.562 47.5625 480.375 47.1875 480.188 46.875C479.938 46.5625 479.656 46.2188 479.344 45.8438C479.031 45.5312 478.625 45.125 478.125 44.625C477.625 44.125 477.031 43.5625 476.344 42.9375ZM534.562 86.9062C536.312 86.9062 537.938 86.7188 539.438 86.3438C540.688 86.0312 541.875 85.5312 543 84.8438C544.188 84.0938 544.969 83 545.344 81.5625C546.594 81.8125 547.656 82.0312 548.531 82.2188C549.406 82.3438 550.156 82.4688 550.781 82.5938C551.469 82.7812 552.062 82.9062 552.562 82.9688C553.062 83.0938 553.656 83.2188 554.344 83.3438C554.969 83.4688 555.719 83.625 556.594 83.8125C557.531 83.9375 558.625 84.125 559.875 84.375C558.938 84.25 557.969 84.3438 556.969 84.6562C556.031 84.9688 555.125 85.3125 554.25 85.6875C553.25 86.125 552.312 86.6562 551.438 87.2812C550.875 87.6562 550.219 88.2188 549.469 88.9688C548.781 89.7188 547.781 90.4375 546.469 91.125C545.156 91.8125 543.406 92.4062 541.219 92.9062C539.094 93.3438 536.344 93.5 532.969 93.375C528.906 93.25 525.5 92.5312 522.75 91.2188C520 89.8438 517.781 88.1875 516.094 86.25C514.406 84.25 513.188 82.0938 512.438 79.7812C511.688 77.4688 511.281 75.3125 511.219 73.3125C511.156 71.3125 511.75 69.2188 513 67.0312C514.25 64.8438 516 62.8438 518.25 61.0312C520.562 59.2188 523.344 57.75 526.594 56.625C529.844 55.4375 533.406 54.8438 537.281 54.8438C539.531 54.8438 541.594 55.125 543.469 55.6875C545.406 56.1875 547.156 56.875 548.719 57.75C550.344 58.625 551.75 59.625 552.938 60.75C554.125 61.8125 555.125 62.9062 555.938 64.0312C556.75 65.2188 557.438 66.4688 558 67.7812C558.5 68.9062 558.906 70.1875 559.219 71.625C559.531 73.0625 559.625 74.5312 559.5 76.0312C554.75 76.1562 550.906 76.25 547.969 76.3125C545.094 76.375 542.844 76.4062 541.219 76.4062H537H533.812C532.688 76.4062 531.219 76.4375 529.406 76.5C527.594 76.5625 525.375 76.6562 522.75 76.7812C523.062 79.2812 523.844 81.2188 525.094 82.5938C526.406 83.9062 527.781 84.9062 529.219 85.5938C530.844 86.3438 532.625 86.7812 534.562 86.9062ZM526.125 70.0312C528.125 70.1562 529.781 70.25 531.094 70.3125C532.469 70.375 533.594 70.4375 534.469 70.5C535.406 70.5625 536.156 70.5938 536.719 70.5938H539.062C540.625 70.5938 543.531 70.5 547.781 70.3125C547.594 67.5625 547 65.4688 546 64.0312C545.062 62.5938 544.062 61.5312 543 60.8438C541.75 60.0938 540.375 59.6562 538.875 59.5312C534.812 59.5938 531.781 60.4375 529.781 62.0625C527.844 63.6875 526.625 66.3438 526.125 70.0312Z" fill="black"/>
</g>
<defs>
<clipPath id="clip0_2_3">
<rect width="562" height="110" fill="white"/>
</clipPath>
</defs>
</svg>
